<svg width="24" height="24" viewBox="0 0 24 24" fill="none" xmlns="http://www.w3.org/2000/svg">
<path d="M12 23C18.0751 23 23 18.0751 23 12C23 5.92487 18.0751 1 12 1M12 23C5.92487 23 1 18.0751 1 12C1 5.92487 5.92487 1 12 1M12 23C9.34213 23 7.1875 18.0751 7.1875 12C7.1875 5.92487 9.34213 1 12 1M12 23C14.6579 23 16.8125 18.0751 16.8125 12C16.8125 5.92487 14.6579 1 12 1M3.0625 17.3465C5.07773 16.1925 8.42589 15.4375 12.2156 15.4375C16.1708 15.4375 19.6451 16.2599 21.625 17.5M3.0625 6.65349C5.07773 7.80748 8.42589 8.5625 12.2156 8.5625C16.1708 8.5625 19.6451 7.74007 21.625 6.5" stroke="#B81669"/>
</svg>
